<?xml version="1.0" encoding="UTF-8" standalone="no"?>
<!DOCTYPE svg PUBLIC "-//W3C//DTD SVG 1.1//EN"
 "http://www.w3.org/Graphics/SVG/1.1/DTD/svg11.dtd">
<!-- Generated by graphviz version 2.47.0 (20210316.0004)
 -->
<!-- Title: dependencies Pages: 1 -->
<svg width="758pt" height="211pt"
 viewBox="0.00 0.00 758.00 211.00" xmlns="http://www.w3.org/2000/svg" xmlns:xlink="http://www.w3.org/1999/xlink">
<g id="graph0" class="graph" transform="scale(1 1) rotate(0) translate(4 207)">
<title>dependencies</title>
<polygon fill="white" stroke="transparent" points="-4,4 -4,-207 754,-207 754,4 -4,4"/>
<text text-anchor="start" x="354.01" y="-42.4" font-family="Times-12" font-weight="bold" font-size="14.00">Legend</text>
<polygon fill="#ffffb3" stroke="transparent" points="141,-10 141,-30 161,-30 161,-10 141,-10"/>
<text text-anchor="start" x="164.63" y="-15.4" font-family="Times-12" font-size="14.00"> &#160;Declarations</text>
<polygon fill="#8dd3c7" stroke="transparent" points="254,-10 254,-30 274,-30 274,-10 254,-10"/>
<text text-anchor="start" x="277.73" y="-15.4" font-family="Times-12" font-size="14.00"> &#160;Module</text>
<polygon fill="#80b1d3" stroke="transparent" points="340,-10 340,-30 360,-30 360,-10 340,-10"/>
<text text-anchor="start" x="363.78" y="-15.4" font-family="Times-12" font-size="14.00"> &#160;Bootstrap</text>
<polygon fill="#fdb462" stroke="transparent" points="437,-10 437,-30 457,-30 457,-10 437,-10"/>
<text text-anchor="start" x="460.67" y="-15.4" font-family="Times-12" font-size="14.00"> &#160;Providers</text>
<polygon fill="#fb8072" stroke="transparent" points="533,-10 533,-30 553,-30 553,-10 533,-10"/>
<text text-anchor="start" x="556.73" y="-15.4" font-family="Times-12" font-size="14.00"> &#160;Exports</text>
<g id="clust1" class="cluster">
<title>cluster_AppModule</title>
<polygon fill="none" stroke="black" stroke-dasharray="1,5" points="8,-70 8,-195 742,-195 742,-70 8,-70"/>
</g>
<g id="clust3" class="cluster">
<title>cluster_AppModule_imports</title>
<polygon fill="none" stroke="black" points="16,-78 16,-130 734,-130 734,-78 16,-78"/>
</g>
<!-- AuthModule -->
<g id="node1" class="node">
<title>AuthModule</title>
<polygon fill="#8dd3c7" stroke="black" points="725.55,-122 722.55,-126 701.55,-126 698.55,-122 638.45,-122 638.45,-86 725.55,-86 725.55,-122"/>
<text text-anchor="middle" x="682" y="-99.8" font-family="Times,serif" font-size="14.00">AuthModule</text>
</g>
<!-- AppModule -->
<g id="node7" class="node">
<title>AppModule</title>
<polygon fill="#8dd3c7" stroke="black" points="448.66,-187 445.66,-191 424.66,-191 421.66,-187 365.34,-187 365.34,-151 448.66,-151 448.66,-187"/>
<text text-anchor="middle" x="407" y="-164.8" font-family="Times,serif" font-size="14.00">AppModule</text>
</g>
<!-- AuthModule&#45;&gt;AppModule -->
<g id="edge1" class="edge">
<title>AuthModule&#45;&gt;AppModule</title>
<path fill="none" stroke="black" d="M682,-122.28C682,-143.32 682,-175 682,-175 682,-175 458.77,-175 458.77,-175"/>
<polygon fill="black" stroke="black" points="458.77,-171.5 448.77,-175 458.77,-178.5 458.77,-171.5"/>
</g>
<!-- ErrorModule -->
<g id="node2" class="node">
<title>ErrorModule</title>
<polygon fill="#8dd3c7" stroke="black" points="620.58,-122 617.58,-126 596.58,-126 593.58,-122 531.42,-122 531.42,-86 620.58,-86 620.58,-122"/>
<text text-anchor="middle" x="576" y="-99.8" font-family="Times,serif" font-size="14.00">ErrorModule</text>
</g>
<!-- ErrorModule&#45;&gt;AppModule -->
<g id="edge2" class="edge">
<title>ErrorModule&#45;&gt;AppModule</title>
<path fill="none" stroke="black" d="M576,-122.02C576,-139.37 576,-163 576,-163 576,-163 458.78,-163 458.78,-163"/>
<polygon fill="black" stroke="black" points="458.78,-159.5 448.78,-163 458.78,-166.5 458.78,-159.5"/>
</g>
<!-- InvoiceModule -->
<g id="node3" class="node">
<title>InvoiceModule</title>
<polygon fill="#8dd3c7" stroke="black" points="513.53,-122 510.53,-126 489.53,-126 486.53,-122 412.47,-122 412.47,-86 513.53,-86 513.53,-122"/>
<text text-anchor="middle" x="463" y="-99.8" font-family="Times,serif" font-size="14.00">InvoiceModule</text>
</g>
<!-- InvoiceModule&#45;&gt;AppModule -->
<g id="edge3" class="edge">
<title>InvoiceModule&#45;&gt;AppModule</title>
<path fill="none" stroke="black" d="M430.53,-122.11C430.53,-122.11 430.53,-140.99 430.53,-140.99"/>
<polygon fill="black" stroke="black" points="427.03,-140.99 430.53,-150.99 434.03,-140.99 427.03,-140.99"/>
</g>
<!-- ItemModule -->
<g id="node4" class="node">
<title>ItemModule</title>
<polygon fill="#8dd3c7" stroke="black" points="394.71,-122 391.71,-126 370.71,-126 367.71,-122 309.29,-122 309.29,-86 394.71,-86 394.71,-122"/>
<text text-anchor="middle" x="352" y="-99.8" font-family="Times,serif" font-size="14.00">ItemModule</text>
</g>
<!-- ItemModule&#45;&gt;AppModule -->
<g id="edge4" class="edge">
<title>ItemModule&#45;&gt;AppModule</title>
<path fill="none" stroke="black" d="M379.89,-122.11C379.89,-122.11 379.89,-140.99 379.89,-140.99"/>
<polygon fill="black" stroke="black" points="376.39,-140.99 379.89,-150.99 383.39,-140.99 376.39,-140.99"/>
</g>
<!-- ReportModule -->
<g id="node5" class="node">
<title>ReportModule</title>
<polygon fill="#8dd3c7" stroke="black" points="291.65,-122 288.65,-126 267.65,-126 264.65,-122 194.35,-122 194.35,-86 291.65,-86 291.65,-122"/>
<text text-anchor="middle" x="243" y="-99.8" font-family="Times,serif" font-size="14.00">ReportModule</text>
</g>
<!-- ReportModule&#45;&gt;AppModule -->
<g id="edge5" class="edge">
<title>ReportModule&#45;&gt;AppModule</title>
<path fill="none" stroke="black" d="M243,-122.02C243,-139.37 243,-163 243,-163 243,-163 355.19,-163 355.19,-163"/>
<polygon fill="black" stroke="black" points="355.19,-166.5 365.19,-163 355.19,-159.5 355.19,-166.5"/>
</g>
<!-- ReturnedInvoiceModule -->
<g id="node6" class="node">
<title>ReturnedInvoiceModule</title>
<polygon fill="#8dd3c7" stroke="black" points="176.35,-122 173.35,-126 152.35,-126 149.35,-122 23.65,-122 23.65,-86 176.35,-86 176.35,-122"/>
<text text-anchor="middle" x="100" y="-99.8" font-family="Times,serif" font-size="14.00">ReturnedInvoiceModule</text>
</g>
<!-- ReturnedInvoiceModule&#45;&gt;AppModule -->
<g id="edge6" class="edge">
<title>ReturnedInvoiceModule&#45;&gt;AppModule</title>
<path fill="none" stroke="black" d="M100,-122.28C100,-143.32 100,-175 100,-175 100,-175 355.28,-175 355.28,-175"/>
<polygon fill="black" stroke="black" points="355.28,-178.5 365.28,-175 355.28,-171.5 355.28,-178.5"/>
</g>
</g>
</svg>
