<?xml version="1.0" encoding="UTF-8" standalone="no"?>
<!DOCTYPE svg PUBLIC "-//W3C//DTD SVG 1.1//EN"
 "http://www.w3.org/Graphics/SVG/1.1/DTD/svg11.dtd">
<!-- Generated by graphviz version 2.47.0 (20210316.0004)
 -->
<!-- Title: dependencies Pages: 1 -->
<svg width="504pt" height="211pt"
 viewBox="0.00 0.00 504.00 211.00" xmlns="http://www.w3.org/2000/svg" xmlns:xlink="http://www.w3.org/1999/xlink">
<g id="graph0" class="graph" transform="scale(1 1) rotate(0) translate(4 207)">
<title>dependencies</title>
<polygon fill="white" stroke="transparent" points="-4,4 -4,-207 500,-207 500,4 -4,4"/>
<text text-anchor="start" x="227.01" y="-42.4" font-family="Times-12" font-weight="bold" font-size="14.00">Legend</text>
<polygon fill="#ffffb3" stroke="transparent" points="14,-10 14,-30 34,-30 34,-10 14,-10"/>
<text text-anchor="start" x="37.63" y="-15.4" font-family="Times-12" font-size="14.00"> &#160;Declarations</text>
<polygon fill="#8dd3c7" stroke="transparent" points="127,-10 127,-30 147,-30 147,-10 127,-10"/>
<text text-anchor="start" x="150.73" y="-15.4" font-family="Times-12" font-size="14.00"> &#160;Module</text>
<polygon fill="#80b1d3" stroke="transparent" points="213,-10 213,-30 233,-30 233,-10 213,-10"/>
<text text-anchor="start" x="236.78" y="-15.4" font-family="Times-12" font-size="14.00"> &#160;Bootstrap</text>
<polygon fill="#fdb462" stroke="transparent" points="310,-10 310,-30 330,-30 330,-10 310,-10"/>
<text text-anchor="start" x="333.67" y="-15.4" font-family="Times-12" font-size="14.00"> &#160;Providers</text>
<polygon fill="#fb8072" stroke="transparent" points="406,-10 406,-30 426,-30 426,-10 406,-10"/>
<text text-anchor="start" x="429.73" y="-15.4" font-family="Times-12" font-size="14.00"> &#160;Exports</text>
<g id="clust1" class="cluster">
<title>cluster_ReportModule</title>
<polygon fill="none" stroke="black" stroke-dasharray="1,5" points="44.5,-70 44.5,-195 451.5,-195 451.5,-70 44.5,-70"/>
</g>
<g id="clust3" class="cluster">
<title>cluster_ReportModule_imports</title>
<polygon fill="none" stroke="black" points="52.5,-78 52.5,-130 443.5,-130 443.5,-78 52.5,-78"/>
</g>
<!-- InvoiceModule -->
<g id="node1" class="node">
<title>InvoiceModule</title>
<polygon fill="#8dd3c7" stroke="black" points="435.03,-122 432.03,-126 411.03,-126 408.03,-122 333.97,-122 333.97,-86 435.03,-86 435.03,-122"/>
<text text-anchor="middle" x="384.5" y="-99.8" font-family="Times,serif" font-size="14.00">InvoiceModule</text>
</g>
<!-- ReportModule -->
<g id="node4" class="node">
<title>ReportModule</title>
<polygon fill="#8dd3c7" stroke="black" points="322.15,-187 319.15,-191 298.15,-191 295.15,-187 224.85,-187 224.85,-151 322.15,-151 322.15,-187"/>
<text text-anchor="middle" x="273.5" y="-164.8" font-family="Times,serif" font-size="14.00">ReportModule</text>
</g>
<!-- InvoiceModule&#45;&gt;ReportModule -->
<g id="edge1" class="edge">
<title>InvoiceModule&#45;&gt;ReportModule</title>
<path fill="none" stroke="black" d="M384.5,-122.11C384.5,-141.34 384.5,-169 384.5,-169 384.5,-169 332.19,-169 332.19,-169"/>
<polygon fill="black" stroke="black" points="332.19,-165.5 322.19,-169 332.19,-172.5 332.19,-165.5"/>
</g>
<!-- ItemModule -->
<g id="node2" class="node">
<title>ItemModule</title>
<polygon fill="#8dd3c7" stroke="black" points="316.21,-122 313.21,-126 292.21,-126 289.21,-122 230.79,-122 230.79,-86 316.21,-86 316.21,-122"/>
<text text-anchor="middle" x="273.5" y="-99.8" font-family="Times,serif" font-size="14.00">ItemModule</text>
</g>
<!-- ItemModule&#45;&gt;ReportModule -->
<g id="edge2" class="edge">
<title>ItemModule&#45;&gt;ReportModule</title>
<path fill="none" stroke="black" d="M273.5,-122.11C273.5,-122.11 273.5,-140.99 273.5,-140.99"/>
<polygon fill="black" stroke="black" points="270,-140.99 273.5,-150.99 277,-140.99 270,-140.99"/>
</g>
<!-- ReturnedInvoiceModule -->
<g id="node3" class="node">
<title>ReturnedInvoiceModule</title>
<polygon fill="#8dd3c7" stroke="black" points="212.85,-122 209.85,-126 188.85,-126 185.85,-122 60.15,-122 60.15,-86 212.85,-86 212.85,-122"/>
<text text-anchor="middle" x="136.5" y="-99.8" font-family="Times,serif" font-size="14.00">ReturnedInvoiceModule</text>
</g>
<!-- ReturnedInvoiceModule&#45;&gt;ReportModule -->
<g id="edge3" class="edge">
<title>ReturnedInvoiceModule&#45;&gt;ReportModule</title>
<path fill="none" stroke="black" d="M136.5,-122.11C136.5,-141.34 136.5,-169 136.5,-169 136.5,-169 214.81,-169 214.81,-169"/>
<polygon fill="black" stroke="black" points="214.81,-172.5 224.81,-169 214.81,-165.5 214.81,-172.5"/>
</g>
</g>
</svg>
