<?xml version="1.0" encoding="UTF-8" standalone="no"?>
<!DOCTYPE svg PUBLIC "-//W3C//DTD SVG 1.1//EN"
 "http://www.w3.org/Graphics/SVG/1.1/DTD/svg11.dtd">
<!-- Generated by graphviz version 2.47.0 (20210316.0004)
 -->
<!-- Title: dependencies Pages: 1 -->
<svg width="504pt" height="284pt"
 viewBox="0.00 0.00 504.00 284.00" xmlns="http://www.w3.org/2000/svg" xmlns:xlink="http://www.w3.org/1999/xlink">
<g id="graph0" class="graph" transform="scale(1 1) rotate(0) translate(4 280)">
<title>dependencies</title>
<polygon fill="white" stroke="transparent" points="-4,4 -4,-280 500,-280 500,4 -4,4"/>
<text text-anchor="start" x="227.01" y="-42.4" font-family="Times-12" font-weight="bold" font-size="14.00">Legend</text>
<polygon fill="#ffffb3" stroke="transparent" points="14,-10 14,-30 34,-30 34,-10 14,-10"/>
<text text-anchor="start" x="37.63" y="-15.4" font-family="Times-12" font-size="14.00"> &#160;Declarations</text>
<polygon fill="#8dd3c7" stroke="transparent" points="127,-10 127,-30 147,-30 147,-10 127,-10"/>
<text text-anchor="start" x="150.73" y="-15.4" font-family="Times-12" font-size="14.00"> &#160;Module</text>
<polygon fill="#80b1d3" stroke="transparent" points="213,-10 213,-30 233,-30 233,-10 213,-10"/>
<text text-anchor="start" x="236.78" y="-15.4" font-family="Times-12" font-size="14.00"> &#160;Bootstrap</text>
<polygon fill="#fdb462" stroke="transparent" points="310,-10 310,-30 330,-30 330,-10 310,-10"/>
<text text-anchor="start" x="333.67" y="-15.4" font-family="Times-12" font-size="14.00"> &#160;Providers</text>
<polygon fill="#fb8072" stroke="transparent" points="406,-10 406,-30 426,-30 426,-10 406,-10"/>
<text text-anchor="start" x="429.73" y="-15.4" font-family="Times-12" font-size="14.00"> &#160;Exports</text>
<g id="clust1" class="cluster">
<title>cluster_InvoiceModule</title>
<polygon fill="none" stroke="black" stroke-dasharray="1,5" points="54.5,-70 54.5,-268 441.5,-268 441.5,-70 54.5,-70"/>
</g>
<g id="clust3" class="cluster">
<title>cluster_InvoiceModule_imports</title>
<polygon fill="none" stroke="black" points="224.5,-78 224.5,-130 433.5,-130 433.5,-78 224.5,-78"/>
</g>
<g id="clust6" class="cluster">
<title>cluster_InvoiceModule_providers</title>
<polygon fill="none" stroke="black" points="62.5,-78 62.5,-130 216.5,-130 216.5,-78 62.5,-78"/>
</g>
<g id="clust4" class="cluster">
<title>cluster_InvoiceModule_exports</title>
<polygon fill="none" stroke="black" points="215.5,-208 215.5,-260 335.5,-260 335.5,-208 215.5,-208"/>
</g>
<!-- ErrorModule -->
<g id="node1" class="node">
<title>ErrorModule</title>
<polygon fill="#8dd3c7" stroke="black" points="425.08,-122 422.08,-126 401.08,-126 398.08,-122 335.92,-122 335.92,-86 425.08,-86 425.08,-122"/>
<text text-anchor="middle" x="380.5" y="-99.8" font-family="Times,serif" font-size="14.00">ErrorModule</text>
</g>
<!-- InvoiceModule -->
<g id="node3" class="node">
<title>InvoiceModule</title>
<polygon fill="#8dd3c7" stroke="black" points="326.03,-187 323.03,-191 302.03,-191 299.03,-187 224.97,-187 224.97,-151 326.03,-151 326.03,-187"/>
<text text-anchor="middle" x="275.5" y="-164.8" font-family="Times,serif" font-size="14.00">InvoiceModule</text>
</g>
<!-- ErrorModule&#45;&gt;InvoiceModule -->
<g id="edge1" class="edge">
<title>ErrorModule&#45;&gt;InvoiceModule</title>
<path fill="none" stroke="black" d="M335.71,-104C327.88,-104 322.18,-104 322.18,-104 322.18,-104 322.18,-140.89 322.18,-140.89"/>
<polygon fill="black" stroke="black" points="318.68,-140.89 322.18,-150.89 325.68,-140.89 318.68,-140.89"/>
</g>
<!-- ItemModule -->
<g id="node2" class="node">
<title>ItemModule</title>
<polygon fill="#8dd3c7" stroke="black" points="318.21,-122 315.21,-126 294.21,-126 291.21,-122 232.79,-122 232.79,-86 318.21,-86 318.21,-122"/>
<text text-anchor="middle" x="275.5" y="-99.8" font-family="Times,serif" font-size="14.00">ItemModule</text>
</g>
<!-- ItemModule&#45;&gt;InvoiceModule -->
<g id="edge2" class="edge">
<title>ItemModule&#45;&gt;InvoiceModule</title>
<path fill="none" stroke="black" d="M275.5,-122.11C275.5,-122.11 275.5,-140.99 275.5,-140.99"/>
<polygon fill="black" stroke="black" points="272,-140.99 275.5,-150.99 279,-140.99 272,-140.99"/>
</g>
<!-- InvoiceService  -->
<g id="node4" class="node">
<title>InvoiceService </title>
<polygon fill="#fb8072" stroke="black" points="327.46,-252 223.54,-252 223.54,-216 327.46,-216 327.46,-252"/>
<text text-anchor="middle" x="275.5" y="-229.8" font-family="Times,serif" font-size="14.00">InvoiceService </text>
</g>
<!-- InvoiceModule&#45;&gt;InvoiceService  -->
<g id="edge3" class="edge">
<title>InvoiceModule&#45;&gt;InvoiceService </title>
<path fill="none" stroke="black" stroke-dasharray="5,2" d="M275.5,-187.11C275.5,-187.11 275.5,-205.99 275.5,-205.99"/>
<polygon fill="black" stroke="black" points="272,-205.99 275.5,-215.99 279,-205.99 272,-205.99"/>
</g>
<!-- InvoiceService -->
<g id="node5" class="node">
<title>InvoiceService</title>
<ellipse fill="#fdb462" stroke="black" cx="139.5" cy="-104" rx="68.9" ry="18"/>
<text text-anchor="middle" x="139.5" y="-99.8" font-family="Times,serif" font-size="14.00">InvoiceService</text>
</g>
<!-- InvoiceService&#45;&gt;InvoiceModule -->
<g id="edge4" class="edge">
<title>InvoiceService&#45;&gt;InvoiceModule</title>
<path fill="none" stroke="black" d="M208.55,-104C220.31,-104 228.82,-104 228.82,-104 228.82,-104 228.82,-140.89 228.82,-140.89"/>
<polygon fill="black" stroke="black" points="225.32,-140.89 228.82,-150.89 232.32,-140.89 225.32,-140.89"/>
</g>
</g>
</svg>
