<?xml version="1.0" encoding="UTF-8" standalone="no"?>
<!DOCTYPE svg PUBLIC "-//W3C//DTD SVG 1.1//EN"
 "http://www.w3.org/Graphics/SVG/1.1/DTD/svg11.dtd">
<!-- Generated by graphviz version 2.47.0 (20210316.0004)
 -->
<!-- Title: dependencies Pages: 1 -->
<svg width="1098pt" height="504pt"
 viewBox="0.00 0.00 1098.00 504.00" xmlns="http://www.w3.org/2000/svg" xmlns:xlink="http://www.w3.org/1999/xlink">
<g id="graph0" class="graph" transform="scale(1 1) rotate(0) translate(4 500)">
<title>dependencies</title>
<polygon fill="white" stroke="transparent" points="-4,4 -4,-500 1094,-500 1094,4 -4,4"/>
<text text-anchor="start" x="524.01" y="-42.4" font-family="Times-12" font-weight="bold" font-size="14.00">Legend</text>
<polygon fill="#ffffb3" stroke="transparent" points="311,-10 311,-30 331,-30 331,-10 311,-10"/>
<text text-anchor="start" x="334.63" y="-15.4" font-family="Times-12" font-size="14.00"> &#160;Declarations</text>
<polygon fill="#8dd3c7" stroke="transparent" points="424,-10 424,-30 444,-30 444,-10 424,-10"/>
<text text-anchor="start" x="447.73" y="-15.4" font-family="Times-12" font-size="14.00"> &#160;Module</text>
<polygon fill="#80b1d3" stroke="transparent" points="510,-10 510,-30 530,-30 530,-10 510,-10"/>
<text text-anchor="start" x="533.78" y="-15.4" font-family="Times-12" font-size="14.00"> &#160;Bootstrap</text>
<polygon fill="#fdb462" stroke="transparent" points="607,-10 607,-30 627,-30 627,-10 607,-10"/>
<text text-anchor="start" x="630.67" y="-15.4" font-family="Times-12" font-size="14.00"> &#160;Providers</text>
<polygon fill="#fb8072" stroke="transparent" points="703,-10 703,-30 723,-30 723,-10 703,-10"/>
<text text-anchor="start" x="726.73" y="-15.4" font-family="Times-12" font-size="14.00"> &#160;Exports</text>
<g id="clust1" class="cluster">
<title>cluster_AppModule</title>
<polygon fill="none" stroke="black" stroke-dasharray="1,5" points="208,-146 208,-488 538,-488 538,-146 208,-146"/>
</g>
<g id="clust3" class="cluster">
<title>cluster_AppModule_imports</title>
<polygon fill="none" stroke="black" points="216,-154 216,-423 530,-423 530,-154 216,-154"/>
</g>
<g id="clust7" class="cluster">
<title>cluster_AuthModule</title>
<polygon fill="none" stroke="black" stroke-dasharray="1,5" points="8,-70 8,-138 674,-138 674,-70 8,-70"/>
</g>
<g id="clust10" class="cluster">
<title>cluster_AuthModule_exports</title>
<polygon fill="none" stroke="black" points="444,-78 444,-130 666,-130 666,-78 444,-78"/>
</g>
<g id="clust12" class="cluster">
<title>cluster_AuthModule_providers</title>
<polygon fill="none" stroke="black" points="16,-78 16,-130 436,-130 436,-78 16,-78"/>
</g>
<g id="clust13" class="cluster">
<title>cluster_ErrorModule</title>
<polygon fill="none" stroke="black" stroke-dasharray="1,5" points="546,-211 546,-279 814,-279 814,-211 546,-211"/>
</g>
<g id="clust16" class="cluster">
<title>cluster_ErrorModule_exports</title>
<polygon fill="none" stroke="black" points="698,-219 698,-271 806,-271 806,-219 698,-219"/>
</g>
<g id="clust18" class="cluster">
<title>cluster_ErrorModule_providers</title>
<polygon fill="none" stroke="black" points="554,-219 554,-271 690,-271 690,-219 554,-219"/>
</g>
<g id="clust19" class="cluster">
<title>cluster_InvoiceModule</title>
<polygon fill="none" stroke="black" stroke-dasharray="1,5" points="546,-287 546,-355 844,-355 844,-287 546,-287"/>
</g>
<g id="clust22" class="cluster">
<title>cluster_InvoiceModule_exports</title>
<polygon fill="none" stroke="black" points="716,-295 716,-347 836,-347 836,-295 716,-295"/>
</g>
<g id="clust24" class="cluster">
<title>cluster_InvoiceModule_providers</title>
<polygon fill="none" stroke="black" points="554,-295 554,-347 708,-347 708,-295 554,-295"/>
</g>
<g id="clust25" class="cluster">
<title>cluster_ItemModule</title>
<polygon fill="none" stroke="black" stroke-dasharray="1,5" points="822,-211 822,-279 1082,-279 1082,-211 822,-211"/>
</g>
<g id="clust28" class="cluster">
<title>cluster_ItemModule_exports</title>
<polygon fill="none" stroke="black" points="970,-219 970,-271 1074,-271 1074,-219 970,-219"/>
</g>
<g id="clust30" class="cluster">
<title>cluster_ItemModule_providers</title>
<polygon fill="none" stroke="black" points="830,-219 830,-271 962,-271 962,-219 830,-219"/>
</g>
<g id="clust37" class="cluster">
<title>cluster_ReturnedInvoiceModule</title>
<polygon fill="none" stroke="black" stroke-dasharray="1,5" points="546,-363 546,-431 964,-431 964,-363 546,-363"/>
</g>
<g id="clust40" class="cluster">
<title>cluster_ReturnedInvoiceModule_exports</title>
<polygon fill="none" stroke="black" points="786,-371 786,-423 956,-423 956,-371 786,-371"/>
</g>
<g id="clust42" class="cluster">
<title>cluster_ReturnedInvoiceModule_providers</title>
<polygon fill="none" stroke="black" points="554,-371 554,-423 778,-423 778,-371 554,-371"/>
</g>
<!-- AuthModule -->
<g id="node1" class="node">
<title>AuthModule</title>
<polygon fill="#8dd3c7" stroke="black" points="414.55,-198 411.55,-202 390.55,-202 387.55,-198 327.45,-198 327.45,-162 414.55,-162 414.55,-198"/>
<text text-anchor="middle" x="371" y="-175.8" font-family="Times,serif" font-size="14.00">AuthModule</text>
</g>
<!-- AppModule -->
<g id="node7" class="node">
<title>AppModule</title>
<polygon fill="#8dd3c7" stroke="black" points="484.66,-480 481.66,-484 460.66,-484 457.66,-480 401.34,-480 401.34,-444 484.66,-444 484.66,-480"/>
<text text-anchor="middle" x="443" y="-457.8" font-family="Times,serif" font-size="14.00">AppModule</text>
</g>
<!-- AuthModule&#45;&gt;AppModule -->
<g id="edge1" class="edge">
<title>AuthModule&#45;&gt;AppModule</title>
<path fill="none" stroke="black" d="M385.5,-198.13C385.5,-208.71 385.5,-220 385.5,-220 385.5,-220 474.03,-220 474.03,-220 474.03,-220 474.03,-433.81 474.03,-433.81"/>
<polygon fill="black" stroke="black" points="470.53,-433.81 474.03,-443.81 477.53,-433.81 470.53,-433.81"/>
</g>
<!-- JwtAuthGuard  -->
<g id="node8" class="node">
<title>JwtAuthGuard </title>
<polygon fill="#fb8072" stroke="black" points="657.92,-122 556.08,-122 556.08,-86 657.92,-86 657.92,-122"/>
<text text-anchor="middle" x="607" y="-99.8" font-family="Times,serif" font-size="14.00">JwtAuthGuard </text>
</g>
<!-- AuthModule&#45;&gt;JwtAuthGuard  -->
<g id="edge7" class="edge">
<title>AuthModule&#45;&gt;JwtAuthGuard </title>
<path fill="none" stroke="black" stroke-dasharray="5,2" d="M400.18,-161.94C400.18,-157.51 400.18,-154 400.18,-154 400.18,-154 609.8,-154 609.8,-154 609.8,-154 609.8,-132.05 609.8,-132.05"/>
<polygon fill="black" stroke="black" points="613.3,-132.05 609.8,-122.05 606.3,-132.05 613.3,-132.05"/>
</g>
<!-- RolesGuard  -->
<g id="node9" class="node">
<title>RolesGuard </title>
<polygon fill="#fb8072" stroke="black" points="538.37,-122 451.63,-122 451.63,-86 538.37,-86 538.37,-122"/>
<text text-anchor="middle" x="495" y="-99.8" font-family="Times,serif" font-size="14.00">RolesGuard </text>
</g>
<!-- AuthModule&#45;&gt;RolesGuard  -->
<g id="edge8" class="edge">
<title>AuthModule&#45;&gt;RolesGuard </title>
<path fill="none" stroke="black" stroke-dasharray="5,2" d="M385.59,-161.81C385.59,-153.72 385.59,-146 385.59,-146 385.59,-146 486.68,-146 486.68,-146 486.68,-146 486.68,-132.06 486.68,-132.06"/>
<polygon fill="black" stroke="black" points="490.18,-132.06 486.68,-122.06 483.18,-132.06 490.18,-132.06"/>
</g>
<!-- ErrorModule -->
<g id="node2" class="node">
<title>ErrorModule</title>
<polygon fill="#8dd3c7" stroke="black" points="521.58,-198 518.58,-202 497.58,-202 494.58,-198 432.42,-198 432.42,-162 521.58,-162 521.58,-198"/>
<text text-anchor="middle" x="477" y="-175.8" font-family="Times,serif" font-size="14.00">ErrorModule</text>
</g>
<!-- InvoiceModule -->
<g id="node3" class="node">
<title>InvoiceModule</title>
<polygon fill="#8dd3c7" stroke="black" points="457.53,-263 454.53,-267 433.53,-267 430.53,-263 356.47,-263 356.47,-227 457.53,-227 457.53,-263"/>
<text text-anchor="middle" x="407" y="-240.8" font-family="Times,serif" font-size="14.00">InvoiceModule</text>
</g>
<!-- ErrorModule&#45;&gt;InvoiceModule -->
<g id="edge14" class="edge">
<title>ErrorModule&#45;&gt;InvoiceModule</title>
<path fill="none" stroke="black" d="M445.11,-198.11C445.11,-198.11 445.11,-216.99 445.11,-216.99"/>
<polygon fill="black" stroke="black" points="441.61,-216.99 445.11,-226.99 448.61,-216.99 441.61,-216.99"/>
</g>
<!-- ErrorModule&#45;&gt;AppModule -->
<g id="edge2" class="edge">
<title>ErrorModule&#45;&gt;AppModule</title>
<path fill="none" stroke="black" d="M479.43,-198.07C479.43,-198.07 479.43,-433.72 479.43,-433.72"/>
<polygon fill="black" stroke="black" points="475.93,-433.72 479.43,-443.72 482.93,-433.72 475.93,-433.72"/>
</g>
<!-- ErrorService  -->
<g id="node13" class="node">
<title>ErrorService </title>
<polygon fill="#fb8072" stroke="black" points="797.51,-263 706.49,-263 706.49,-227 797.51,-227 797.51,-263"/>
<text text-anchor="middle" x="752" y="-240.8" font-family="Times,serif" font-size="14.00">ErrorService </text>
</g>
<!-- ErrorModule&#45;&gt;ErrorService  -->
<g id="edge12" class="edge">
<title>ErrorModule&#45;&gt;ErrorService </title>
<path fill="none" stroke="black" stroke-dasharray="5,2" d="M521.8,-180C599.72,-180 752,-180 752,-180 752,-180 752,-216.89 752,-216.89"/>
<polygon fill="black" stroke="black" points="748.5,-216.89 752,-226.89 755.5,-216.89 748.5,-216.89"/>
</g>
<!-- ReportModule -->
<g id="node5" class="node">
<title>ReportModule</title>
<polygon fill="#8dd3c7" stroke="black" points="457.65,-415 454.65,-419 433.65,-419 430.65,-415 360.35,-415 360.35,-379 457.65,-379 457.65,-415"/>
<text text-anchor="middle" x="409" y="-392.8" font-family="Times,serif" font-size="14.00">ReportModule</text>
</g>
<!-- InvoiceModule&#45;&gt;ReportModule -->
<g id="edge20" class="edge">
<title>InvoiceModule&#45;&gt;ReportModule</title>
<path fill="none" stroke="black" d="M448.09,-263.03C448.09,-263.03 448.09,-368.99 448.09,-368.99"/>
<polygon fill="black" stroke="black" points="444.59,-368.99 448.09,-378.99 451.59,-368.99 444.59,-368.99"/>
</g>
<!-- ReturnedInvoiceModule -->
<g id="node6" class="node">
<title>ReturnedInvoiceModule</title>
<polygon fill="#8dd3c7" stroke="black" points="438.35,-339 435.35,-343 414.35,-343 411.35,-339 285.65,-339 285.65,-303 438.35,-303 438.35,-339"/>
<text text-anchor="middle" x="362" y="-316.8" font-family="Times,serif" font-size="14.00">ReturnedInvoiceModule</text>
</g>
<!-- InvoiceModule&#45;&gt;ReturnedInvoiceModule -->
<g id="edge23" class="edge">
<title>InvoiceModule&#45;&gt;ReturnedInvoiceModule</title>
<path fill="none" stroke="black" d="M397.33,-263.01C397.33,-263.01 397.33,-292.85 397.33,-292.85"/>
<polygon fill="black" stroke="black" points="393.83,-292.85 397.33,-302.85 400.83,-292.85 393.83,-292.85"/>
</g>
<!-- InvoiceModule&#45;&gt;AppModule -->
<g id="edge3" class="edge">
<title>InvoiceModule&#45;&gt;AppModule</title>
<path fill="none" stroke="black" d="M457.61,-239C464.15,-239 468.63,-239 468.63,-239 468.63,-239 468.63,-433.75 468.63,-433.75"/>
<polygon fill="black" stroke="black" points="465.13,-433.75 468.63,-443.75 472.13,-433.75 465.13,-433.75"/>
</g>
<!-- InvoiceService  -->
<g id="node15" class="node">
<title>InvoiceService </title>
<polygon fill="#fb8072" stroke="black" points="827.96,-339 724.04,-339 724.04,-303 827.96,-303 827.96,-339"/>
<text text-anchor="middle" x="776" y="-316.8" font-family="Times,serif" font-size="14.00">InvoiceService </text>
</g>
<!-- InvoiceModule&#45;&gt;InvoiceService  -->
<g id="edge16" class="edge">
<title>InvoiceModule&#45;&gt;InvoiceService </title>
<path fill="none" stroke="black" stroke-dasharray="5,2" d="M443.26,-263.11C443.26,-272.9 443.26,-283 443.26,-283 443.26,-283 760.89,-283 760.89,-283 760.89,-283 760.89,-292.89 760.89,-292.89"/>
<polygon fill="black" stroke="black" points="757.39,-292.89 760.89,-302.89 764.39,-292.89 757.39,-292.89"/>
</g>
<!-- ItemModule -->
<g id="node4" class="node">
<title>ItemModule</title>
<polygon fill="#8dd3c7" stroke="black" points="309.71,-198 306.71,-202 285.71,-202 282.71,-198 224.29,-198 224.29,-162 309.71,-162 309.71,-198"/>
<text text-anchor="middle" x="267" y="-175.8" font-family="Times,serif" font-size="14.00">ItemModule</text>
</g>
<!-- ItemModule&#45;&gt;InvoiceModule -->
<g id="edge15" class="edge">
<title>ItemModule&#45;&gt;InvoiceModule</title>
<path fill="none" stroke="black" d="M304.8,-198.11C304.8,-217.34 304.8,-245 304.8,-245 304.8,-245 346.2,-245 346.2,-245"/>
<polygon fill="black" stroke="black" points="346.2,-248.5 356.2,-245 346.2,-241.5 346.2,-248.5"/>
</g>
<!-- ItemModule&#45;&gt;ReportModule -->
<g id="edge21" class="edge">
<title>ItemModule&#45;&gt;ReportModule</title>
<path fill="none" stroke="black" d="M265.18,-198.13C265.18,-250.28 265.18,-397 265.18,-397 265.18,-397 350.31,-397 350.31,-397"/>
<polygon fill="black" stroke="black" points="350.31,-400.5 360.31,-397 350.31,-393.5 350.31,-400.5"/>
</g>
<!-- ItemModule&#45;&gt;ReturnedInvoiceModule -->
<g id="edge24" class="edge">
<title>ItemModule&#45;&gt;ReturnedInvoiceModule</title>
<path fill="none" stroke="black" d="M299.99,-198.14C299.99,-198.14 299.99,-292.93 299.99,-292.93"/>
<polygon fill="black" stroke="black" points="296.49,-292.92 299.99,-302.93 303.49,-292.93 296.49,-292.92"/>
</g>
<!-- ItemModule&#45;&gt;AppModule -->
<g id="edge4" class="edge">
<title>ItemModule&#45;&gt;AppModule</title>
<path fill="none" stroke="black" d="M244.79,-198.07C244.79,-260.31 244.79,-462 244.79,-462 244.79,-462 390.96,-462 390.96,-462"/>
<polygon fill="black" stroke="black" points="390.96,-465.5 400.96,-462 390.96,-458.5 390.96,-465.5"/>
</g>
<!-- ItemService  -->
<g id="node17" class="node">
<title>ItemService </title>
<polygon fill="#fb8072" stroke="black" points="1065.63,-263 978.37,-263 978.37,-227 1065.63,-227 1065.63,-263"/>
<text text-anchor="middle" x="1022" y="-240.8" font-family="Times,serif" font-size="14.00">ItemService </text>
</g>
<!-- ItemModule&#45;&gt;ItemService  -->
<g id="edge18" class="edge">
<title>ItemModule&#45;&gt;ItemService </title>
<path fill="none" stroke="black" stroke-dasharray="5,2" d="M290.38,-198.06C290.38,-202.49 290.38,-206 290.38,-206 290.38,-206 1022,-206 1022,-206 1022,-206 1022,-216.87 1022,-216.87"/>
<polygon fill="black" stroke="black" points="1018.5,-216.87 1022,-226.87 1025.5,-216.87 1018.5,-216.87"/>
</g>
<!-- ReportModule&#45;&gt;AppModule -->
<g id="edge5" class="edge">
<title>ReportModule&#45;&gt;AppModule</title>
<path fill="none" stroke="black" d="M429.5,-415.11C429.5,-415.11 429.5,-433.99 429.5,-433.99"/>
<polygon fill="black" stroke="black" points="426,-433.99 429.5,-443.99 433,-433.99 426,-433.99"/>
</g>
<!-- ReturnedInvoiceModule&#45;&gt;ReportModule -->
<g id="edge22" class="edge">
<title>ReturnedInvoiceModule&#45;&gt;ReportModule</title>
<path fill="none" stroke="black" d="M386.26,-339.01C386.26,-339.01 386.26,-368.85 386.26,-368.85"/>
<polygon fill="black" stroke="black" points="382.76,-368.85 386.26,-378.85 389.76,-368.85 382.76,-368.85"/>
</g>
<!-- ReturnedInvoiceModule&#45;&gt;AppModule -->
<g id="edge6" class="edge">
<title>ReturnedInvoiceModule&#45;&gt;AppModule</title>
<path fill="none" stroke="black" d="M438.46,-330C452.71,-330 463.23,-330 463.23,-330 463.23,-330 463.23,-433.92 463.23,-433.92"/>
<polygon fill="black" stroke="black" points="459.73,-433.92 463.23,-443.92 466.73,-433.92 459.73,-433.92"/>
</g>
<!-- ReturnedInvoiceService  -->
<g id="node19" class="node">
<title>ReturnedInvoiceService </title>
<polygon fill="#fb8072" stroke="black" points="948.28,-415 793.72,-415 793.72,-379 948.28,-379 948.28,-415"/>
<text text-anchor="middle" x="871" y="-392.8" font-family="Times,serif" font-size="14.00">ReturnedInvoiceService </text>
</g>
<!-- ReturnedInvoiceModule&#45;&gt;ReturnedInvoiceService  -->
<g id="edge25" class="edge">
<title>ReturnedInvoiceModule&#45;&gt;ReturnedInvoiceService </title>
<path fill="none" stroke="black" stroke-dasharray="5,2" d="M412.34,-339.11C412.34,-348.9 412.34,-359 412.34,-359 412.34,-359 810.67,-359 810.67,-359 810.67,-359 810.67,-368.89 810.67,-368.89"/>
<polygon fill="black" stroke="black" points="807.17,-368.89 810.67,-378.89 814.17,-368.89 807.17,-368.89"/>
</g>
<!-- AuthService -->
<g id="node10" class="node">
<title>AuthService</title>
<ellipse fill="#fdb462" stroke="black" cx="237" cy="-104" rx="59.11" ry="18"/>
<text text-anchor="middle" x="237" y="-99.8" font-family="Times,serif" font-size="14.00">AuthService</text>
</g>
<!-- AuthService&#45;&gt;AuthModule -->
<g id="edge9" class="edge">
<title>AuthService&#45;&gt;AuthModule</title>
<path fill="none" stroke="black" d="M260.35,-120.61C260.35,-125.71 260.35,-130 260.35,-130 260.35,-130 356.41,-130 356.41,-130 356.41,-130 356.41,-151.95 356.41,-151.95"/>
<polygon fill="black" stroke="black" points="352.91,-151.95 356.41,-161.95 359.91,-151.95 352.91,-151.95"/>
</g>
<!-- JwtAuthGuard -->
<g id="node11" class="node">
<title>JwtAuthGuard</title>
<ellipse fill="#fdb462" stroke="black" cx="92" cy="-104" rx="67.78" ry="18"/>
<text text-anchor="middle" x="92" y="-99.8" font-family="Times,serif" font-size="14.00">JwtAuthGuard</text>
</g>
<!-- JwtAuthGuard&#45;&gt;AuthModule -->
<g id="edge10" class="edge">
<title>JwtAuthGuard&#45;&gt;AuthModule</title>
<path fill="none" stroke="black" d="M92,-122.19C92,-130.28 92,-138 92,-138 92,-138 341.82,-138 341.82,-138 341.82,-138 341.82,-151.94 341.82,-151.94"/>
<polygon fill="black" stroke="black" points="338.32,-151.94 341.82,-161.94 345.32,-151.94 338.32,-151.94"/>
</g>
<!-- JwtStrategy -->
<g id="node12" class="node">
<title>JwtStrategy</title>
<ellipse fill="#fdb462" stroke="black" cx="371" cy="-104" rx="56.76" ry="18"/>
<text text-anchor="middle" x="371" y="-99.8" font-family="Times,serif" font-size="14.00">JwtStrategy</text>
</g>
<!-- JwtStrategy&#45;&gt;AuthModule -->
<g id="edge11" class="edge">
<title>JwtStrategy&#45;&gt;AuthModule</title>
<path fill="none" stroke="black" d="M371,-122.01C371,-122.01 371,-151.85 371,-151.85"/>
<polygon fill="black" stroke="black" points="367.5,-151.85 371,-161.85 374.5,-151.85 367.5,-151.85"/>
</g>
<!-- ErrorService -->
<g id="node14" class="node">
<title>ErrorService</title>
<ellipse fill="#fdb462" stroke="black" cx="622" cy="-245" rx="60.23" ry="18"/>
<text text-anchor="middle" x="622" y="-240.8" font-family="Times,serif" font-size="14.00">ErrorService</text>
</g>
<!-- ErrorService&#45;&gt;ErrorModule -->
<g id="edge13" class="edge">
<title>ErrorService&#45;&gt;ErrorModule</title>
<path fill="none" stroke="black" d="M565.03,-251C534.54,-251 503.19,-251 503.19,-251 503.19,-251 503.19,-208.28 503.19,-208.28"/>
<polygon fill="black" stroke="black" points="506.69,-208.28 503.19,-198.28 499.69,-208.28 506.69,-208.28"/>
</g>
<!-- InvoiceService -->
<g id="node16" class="node">
<title>InvoiceService</title>
<ellipse fill="#fdb462" stroke="black" cx="631" cy="-321" rx="68.9" ry="18"/>
<text text-anchor="middle" x="631" y="-316.8" font-family="Times,serif" font-size="14.00">InvoiceService</text>
</g>
<!-- InvoiceService&#45;&gt;InvoiceModule -->
<g id="edge17" class="edge">
<title>InvoiceService&#45;&gt;InvoiceModule</title>
<path fill="none" stroke="black" d="M571.21,-312C519.48,-312 452.93,-312 452.93,-312 452.93,-312 452.93,-273.31 452.93,-273.31"/>
<polygon fill="black" stroke="black" points="456.43,-273.31 452.93,-263.31 449.43,-273.31 456.43,-273.31"/>
</g>
<!-- ItemService -->
<g id="node18" class="node">
<title>ItemService</title>
<ellipse fill="#fdb462" stroke="black" cx="896" cy="-245" rx="57.88" ry="18"/>
<text text-anchor="middle" x="896" y="-240.8" font-family="Times,serif" font-size="14.00">ItemService</text>
</g>
<!-- ItemService&#45;&gt;ItemModule -->
<g id="edge19" class="edge">
<title>ItemService&#45;&gt;ItemModule</title>
<path fill="none" stroke="black" d="M896,-226.76C896,-219.57 896,-213 896,-213 896,-213 295.19,-213 295.19,-213 295.19,-213 295.19,-208.04 295.19,-208.04"/>
<polygon fill="black" stroke="black" points="298.69,-208.04 295.19,-198.04 291.69,-208.04 298.69,-208.04"/>
</g>
<!-- ReturnedInvoiceService -->
<g id="node20" class="node">
<title>ReturnedInvoiceService</title>
<ellipse fill="#fdb462" stroke="black" cx="666" cy="-397" rx="104.19" ry="18"/>
<text text-anchor="middle" x="666" y="-392.8" font-family="Times,serif" font-size="14.00">ReturnedInvoiceService</text>
</g>
<!-- ReturnedInvoiceService&#45;&gt;ReturnedInvoiceModule -->
<g id="edge26" class="edge">
<title>ReturnedInvoiceService&#45;&gt;ReturnedInvoiceModule</title>
<path fill="none" stroke="black" d="M561.22,-397C552.6,-397 547.11,-397 547.11,-397 547.11,-397 547.11,-321 547.11,-321 547.11,-321 448.36,-321 448.36,-321"/>
<polygon fill="black" stroke="black" points="448.36,-317.5 438.36,-321 448.36,-324.5 448.36,-317.5"/>
</g>
</g>
</svg>
