<?xml version="1.0" encoding="UTF-8" standalone="no"?>
<!DOCTYPE svg PUBLIC "-//W3C//DTD SVG 1.1//EN"
 "http://www.w3.org/Graphics/SVG/1.1/DTD/svg11.dtd">
<!-- Generated by graphviz version 2.47.0 (20210316.0004)
 -->
<!-- Title: dependencies Pages: 1 -->
<svg width="504pt" height="284pt"
 viewBox="0.00 0.00 504.00 284.00" xmlns="http://www.w3.org/2000/svg" xmlns:xlink="http://www.w3.org/1999/xlink">
<g id="graph0" class="graph" transform="scale(1 1) rotate(0) translate(4 280)">
<title>dependencies</title>
<polygon fill="white" stroke="transparent" points="-4,4 -4,-280 500,-280 500,4 -4,4"/>
<text text-anchor="start" x="227.01" y="-42.4" font-family="Times-12" font-weight="bold" font-size="14.00">Legend</text>
<polygon fill="#ffffb3" stroke="transparent" points="14,-10 14,-30 34,-30 34,-10 14,-10"/>
<text text-anchor="start" x="37.63" y="-15.4" font-family="Times-12" font-size="14.00"> &#160;Declarations</text>
<polygon fill="#8dd3c7" stroke="transparent" points="127,-10 127,-30 147,-30 147,-10 127,-10"/>
<text text-anchor="start" x="150.73" y="-15.4" font-family="Times-12" font-size="14.00"> &#160;Module</text>
<polygon fill="#80b1d3" stroke="transparent" points="213,-10 213,-30 233,-30 233,-10 213,-10"/>
<text text-anchor="start" x="236.78" y="-15.4" font-family="Times-12" font-size="14.00"> &#160;Bootstrap</text>
<polygon fill="#fdb462" stroke="transparent" points="310,-10 310,-30 330,-30 330,-10 310,-10"/>
<text text-anchor="start" x="333.67" y="-15.4" font-family="Times-12" font-size="14.00"> &#160;Providers</text>
<polygon fill="#fb8072" stroke="transparent" points="406,-10 406,-30 426,-30 426,-10 406,-10"/>
<text text-anchor="start" x="429.73" y="-15.4" font-family="Times-12" font-size="14.00"> &#160;Exports</text>
<g id="clust1" class="cluster">
<title>cluster_ReturnedInvoiceModule</title>
<polygon fill="none" stroke="black" stroke-dasharray="1,5" points="13.5,-70 13.5,-268 482.5,-268 482.5,-70 13.5,-70"/>
</g>
<g id="clust3" class="cluster">
<title>cluster_ReturnedInvoiceModule_imports</title>
<polygon fill="none" stroke="black" points="253.5,-78 253.5,-130 474.5,-130 474.5,-78 253.5,-78"/>
</g>
<g id="clust6" class="cluster">
<title>cluster_ReturnedInvoiceModule_providers</title>
<polygon fill="none" stroke="black" points="21.5,-78 21.5,-130 245.5,-130 245.5,-78 21.5,-78"/>
</g>
<g id="clust4" class="cluster">
<title>cluster_ReturnedInvoiceModule_exports</title>
<polygon fill="none" stroke="black" points="219.5,-208 219.5,-260 389.5,-260 389.5,-208 219.5,-208"/>
</g>
<!-- InvoiceModule -->
<g id="node1" class="node">
<title>InvoiceModule</title>
<polygon fill="#8dd3c7" stroke="black" points="466.03,-122 463.03,-126 442.03,-126 439.03,-122 364.97,-122 364.97,-86 466.03,-86 466.03,-122"/>
<text text-anchor="middle" x="415.5" y="-99.8" font-family="Times,serif" font-size="14.00">InvoiceModule</text>
</g>
<!-- ReturnedInvoiceModule -->
<g id="node3" class="node">
<title>ReturnedInvoiceModule</title>
<polygon fill="#8dd3c7" stroke="black" points="380.85,-187 377.85,-191 356.85,-191 353.85,-187 228.15,-187 228.15,-151 380.85,-151 380.85,-187"/>
<text text-anchor="middle" x="304.5" y="-164.8" font-family="Times,serif" font-size="14.00">ReturnedInvoiceModule</text>
</g>
<!-- InvoiceModule&#45;&gt;ReturnedInvoiceModule -->
<g id="edge1" class="edge">
<title>InvoiceModule&#45;&gt;ReturnedInvoiceModule</title>
<path fill="none" stroke="black" d="M372.83,-122.11C372.83,-122.11 372.83,-140.99 372.83,-140.99"/>
<polygon fill="black" stroke="black" points="369.33,-140.99 372.83,-150.99 376.33,-140.99 369.33,-140.99"/>
</g>
<!-- ItemModule -->
<g id="node2" class="node">
<title>ItemModule</title>
<polygon fill="#8dd3c7" stroke="black" points="347.21,-122 344.21,-126 323.21,-126 320.21,-122 261.79,-122 261.79,-86 347.21,-86 347.21,-122"/>
<text text-anchor="middle" x="304.5" y="-99.8" font-family="Times,serif" font-size="14.00">ItemModule</text>
</g>
<!-- ItemModule&#45;&gt;ReturnedInvoiceModule -->
<g id="edge2" class="edge">
<title>ItemModule&#45;&gt;ReturnedInvoiceModule</title>
<path fill="none" stroke="black" d="M304.5,-122.11C304.5,-122.11 304.5,-140.99 304.5,-140.99"/>
<polygon fill="black" stroke="black" points="301,-140.99 304.5,-150.99 308,-140.99 301,-140.99"/>
</g>
<!-- ReturnedInvoiceService  -->
<g id="node4" class="node">
<title>ReturnedInvoiceService </title>
<polygon fill="#fb8072" stroke="black" points="381.78,-252 227.22,-252 227.22,-216 381.78,-216 381.78,-252"/>
<text text-anchor="middle" x="304.5" y="-229.8" font-family="Times,serif" font-size="14.00">ReturnedInvoiceService </text>
</g>
<!-- ReturnedInvoiceModule&#45;&gt;ReturnedInvoiceService  -->
<g id="edge3" class="edge">
<title>ReturnedInvoiceModule&#45;&gt;ReturnedInvoiceService </title>
<path fill="none" stroke="black" stroke-dasharray="5,2" d="M304.5,-187.11C304.5,-187.11 304.5,-205.99 304.5,-205.99"/>
<polygon fill="black" stroke="black" points="301,-205.99 304.5,-215.99 308,-205.99 301,-205.99"/>
</g>
<!-- ReturnedInvoiceService -->
<g id="node5" class="node">
<title>ReturnedInvoiceService</title>
<ellipse fill="#fdb462" stroke="black" cx="133.5" cy="-104" rx="104.19" ry="18"/>
<text text-anchor="middle" x="133.5" y="-99.8" font-family="Times,serif" font-size="14.00">ReturnedInvoiceService</text>
</g>
<!-- ReturnedInvoiceService&#45;&gt;ReturnedInvoiceModule -->
<g id="edge4" class="edge">
<title>ReturnedInvoiceService&#45;&gt;ReturnedInvoiceModule</title>
<path fill="none" stroke="black" d="M232.96,-109.54C232.96,-109.54 232.96,-140.75 232.96,-140.75"/>
<polygon fill="black" stroke="black" points="229.46,-140.75 232.96,-150.75 236.46,-140.75 229.46,-140.75"/>
</g>
</g>
</svg>
